<?xml version="1.0" encoding="UTF-8"?>
<!DOCTYPE svg PUBLIC "-//W3C//DTD SVG 1.1//EN" "http://www.w3.org/Graphics/SVG/1.1/DTD/svg11.dtd">
<svg xmlns="http://www.w3.org/2000/svg" version="1.1" width="384px" height="143px" style="shape-rendering:geometricPrecision; text-rendering:geometricPrecision; image-rendering:optimizeQuality; fill-rule:evenodd; clip-rule:evenodd" xmlns:xlink="http://www.w3.org/1999/xlink">
<g><path style="opacity:1" fill="#04bc66" d="M 74.5,39.5 C 63.5,39.5 52.5,39.5 41.5,39.5C 41.5,46.1667 41.5,52.8333 41.5,59.5C 51.8333,59.5 62.1667,59.5 72.5,59.5C 72.5,63.5 72.5,67.5 72.5,71.5C 71.5206,68.3752 71.1872,65.0419 71.5,61.5C 61.4944,61.6665 51.4944,61.4998 41.5,61C 39.8441,55.4728 38.5108,49.8061 37.5,44C 37.7549,42.6739 38.4216,41.6739 39.5,41C 39.0426,40.586 38.7093,40.086 38.5,39.5C 41.9753,37.6781 45.4753,36.0114 49,34.5C 50.3529,38.1636 53.0195,38.4969 57,35.5C 61.3333,35.8333 65.6667,36.1667 70,36.5C 72.5712,35.0227 73.0712,33.0227 71.5,30.5C 73.5388,28.5518 73.5388,26.3852 71.5,24C 55.5,23.3333 39.5,23.3333 23.5,24C 22.2768,51.7774 21.7768,79.6108 22,107.5C 21.6174,108.056 21.1174,108.389 20.5,108.5C 20.5,79.8333 20.5,51.1667 20.5,22.5C 38.4923,21.8336 56.4923,21.5002 74.5,21.5C 74.5,27.5 74.5,33.5 74.5,39.5 Z"/></g>
<g><path style="opacity:1" fill="#12bf64" d="M 247.5,21.5 C 247.389,22.1174 247.056,22.6174 246.5,23C 249.146,23.4974 251.813,23.6641 254.5,23.5C 256.819,23.9925 258.819,24.9925 260.5,26.5C 262.667,31.4272 266.333,34.7605 271.5,36.5C 272.5,37.1667 273.5,37.8333 274.5,38.5C 276.262,39.2623 277.262,40.5956 277.5,42.5C 277.574,45.6587 278.907,47.9921 281.5,49.5C 281.41,52.1522 282.076,54.4855 283.5,56.5C 290.508,56.3337 297.508,56.5004 304.5,57C 305.138,58.7067 305.138,60.54 304.5,62.5C 304.334,67.5111 304.501,72.5111 305,77.5C 305.791,76.255 306.291,74.9217 306.5,73.5C 307.906,73.0269 308.573,72.0269 308.5,70.5C 312.699,68.7003 315.699,65.7003 317.5,61.5C 319.336,59.412 321.669,58.0787 324.5,57.5C 326.861,57.3259 329.194,56.9926 331.5,56.5C 339.327,56.4756 346.994,57.4756 354.5,59.5C 355.028,60.7206 355.695,61.8873 356.5,63C 359.117,64.0823 361.451,65.5823 363.5,67.5C 363.241,69.9893 364.241,71.656 366.5,72.5C 368.074,74.1016 368.741,76.1016 368.5,78.5C 368.5,82.1667 368.5,85.8333 368.5,89.5C 353.99,89.1707 339.657,89.5041 325.5,90.5C 325.232,92.099 325.566,93.4324 326.5,94.5C 327.167,95.8333 327.833,97.1667 328.5,98.5C 328.973,99.9063 329.973,100.573 331.5,100.5C 336.103,101.383 340.77,101.717 345.5,101.5C 348.522,101.658 350.522,100.325 351.5,97.5C 353.167,98.8333 354.833,98.8333 356.5,97.5C 357.492,97.3284 358.158,97.6618 358.5,98.5C 359.68,100.913 361.68,101.913 364.5,101.5C 364.923,102.265 365.257,103.098 365.5,104C 363.965,106.244 361.965,107.911 359.5,109C 359.833,109.333 360.167,109.667 360.5,110C 359.027,110.71 358.36,111.876 358.5,113.5C 352.712,114.484 347.045,115.984 341.5,118C 338.518,118.498 335.518,118.665 332.5,118.5C 329.833,118.167 327.167,117.833 324.5,117.5C 322.847,117.34 321.514,116.674 320.5,115.5C 320.027,114.094 319.027,113.427 317.5,113.5C 317.027,112.094 316.027,111.427 314.5,111.5C 314.512,108.858 313.179,107.525 310.5,107.5C 310.573,105.973 309.906,104.973 308.5,104.5C 307.094,104.027 306.427,103.027 306.5,101.5C 306.672,100.508 306.338,99.8417 305.5,99.5C 305.587,96.4017 305.087,96.0684 304,98.5C 303.501,104.491 303.334,110.491 303.5,116.5C 297.5,116.5 291.5,116.5 285.5,116.5C 285.801,104.794 285.301,93.1275 284,81.5C 282.22,82.5937 280.386,83.5937 278.5,84.5C 277.756,87.443 277.256,90.443 277,93.5C 274.609,92.3975 274.109,93.0642 275.5,95.5C 274.675,96.3857 273.675,96.719 272.5,96.5C 272.5,98.5 272.5,100.5 272.5,102.5C 270.801,102.34 269.134,102.506 267.5,103C 269.878,103.974 269.544,104.641 266.5,105C 267.598,105.77 267.598,106.603 266.5,107.5C 265.738,109.262 264.404,110.262 262.5,110.5C 260.011,110.241 258.344,111.241 257.5,113.5C 257.167,113.5 256.833,113.5 256.5,113.5C 254.219,113.077 252.552,113.744 251.5,115.5C 250.791,116.404 249.791,116.737 248.5,116.5C 235.187,117.358 221.853,117.691 208.5,117.5C 208.666,110.492 208.5,103.492 208,96.5C 207.209,97.745 206.709,99.0783 206.5,100.5C 206.5,100.833 206.5,101.167 206.5,101.5C 205.5,101.5 204.5,101.5 203.5,101.5C 203.5,102.5 203.5,103.5 203.5,104.5C 202.5,104.5 201.5,104.5 200.5,104.5C 200.5,105.833 200.5,107.167 200.5,108.5C 199.127,108.343 197.793,108.51 196.5,109C 197.252,109.671 197.586,110.504 197.5,111.5C 193.683,115.409 189.016,117.742 183.5,118.5C 174.383,118.928 165.383,118.262 156.5,116.5C 156.167,116.5 155.833,116.5 155.5,116.5C 155.027,115.094 154.027,114.427 152.5,114.5C 152.027,113.094 151.027,112.427 149.5,112.5C 149.027,111.094 148.027,110.427 146.5,110.5C 143.529,108.557 141.529,105.891 140.5,102.5C 140.5,101.5 140.5,100.5 140.5,99.5C 139.5,99.5 138.5,99.5 137.5,99.5C 136.833,102.167 136.167,104.833 135.5,107.5C 127.96,116.249 118.293,120.582 106.5,120.5C 102.95,120.246 99.6166,119.579 96.5,118.5C 93.855,116.69 90.855,115.69 87.5,115.5C 86.5084,115.672 85.8417,115.338 85.5,114.5C 85.1667,113.5 84.5,112.833 83.5,112.5C 81.5168,109.884 80.5168,106.884 80.5,103.5C 78.8561,103.714 77.3561,103.38 76,102.5C 75.3333,99.1667 74.6667,95.8333 74,92.5C 73.586,92.0426 73.086,91.7093 72.5,91.5C 71.5108,87.8927 71.1774,84.226 71.5,80.5C 61.8893,78.5257 51.8893,77.859 41.5,78.5C 40.5046,90.989 40.1713,103.656 40.5,116.5C 33.8333,116.5 27.1667,116.5 20.5,116.5C 20.5,113.833 20.5,111.167 20.5,108.5C 21.1174,108.389 21.6174,108.056 22,107.5C 21.7768,79.6108 22.2768,51.7774 23.5,24C 39.5,23.3333 55.5,23.3333 71.5,24C 73.5388,26.3852 73.5388,28.5518 71.5,30.5C 73.0712,33.0227 72.5712,35.0227 70,36.5C 65.6667,36.1667 61.3333,35.8333 57,35.5C 53.0195,38.4969 50.3529,38.1636 49,34.5C 45.4753,36.0114 41.9753,37.6781 38.5,39.5C 38.7093,40.086 39.0426,40.586 39.5,41C 38.4216,41.6739 37.7549,42.6739 37.5,44C 38.5108,49.8061 39.8441,55.4728 41.5,61C 51.4944,61.4998 61.4944,61.6665 71.5,61.5C 71.1872,65.0419 71.5206,68.3752 72.5,71.5C 72.638,75.2861 73.3047,75.2861 74.5,71.5C 75.1667,71.1667 75.8333,70.8333 76.5,70.5C 81.1568,68.5044 84.4901,65.1711 86.5,60.5C 88.9674,60.2451 90.9674,59.2451 92.5,57.5C 104.611,52.926 116.278,53.926 127.5,60.5C 128.035,62.4456 129.368,63.4456 131.5,63.5C 133.167,64.5 134.5,65.8333 135.5,67.5C 136.219,69.7638 136.552,72.0971 136.5,74.5C 142.409,75.6329 145.909,73.6329 147,68.5C 149.355,67.1919 151.855,66.1919 154.5,65.5C 155.833,64.5 155.833,63.5 154.5,62.5C 156.665,60.2752 159.332,59.1085 162.5,59C 160.381,58.6582 160.047,57.8249 161.5,56.5C 169.167,53.8333 176.833,53.8333 184.5,56.5C 186.229,58.7267 188.562,59.7267 191.5,59.5C 192.63,61.3146 193.296,63.3146 193.5,65.5C 196.831,65.0181 199.497,66.0181 201.5,68.5C 202.5,69.1667 203.5,69.8333 204.5,70.5C 205.674,71.5137 206.34,72.847 206.5,74.5C 207.979,78.4699 208.646,78.1366 208.5,73.5C 209.497,56.3414 209.83,39.008 209.5,21.5C 222.167,21.5 234.833,21.5 247.5,21.5 Z M 240.5,41.5 C 242.302,42.4582 244.302,43.1249 246.5,43.5C 246.973,44.9063 247.973,45.573 249.5,45.5C 250.5,47.1667 251.833,48.5 253.5,49.5C 254.934,52.0472 256.6,54.3805 258.5,56.5C 262.075,67.5357 260.742,77.8691 254.5,87.5C 252.167,89.1667 250.167,91.1667 248.5,93.5C 245.574,94.6976 242.574,95.6976 239.5,96.5C 236.5,96.5 233.5,96.5 230.5,96.5C 230.5,78.1667 230.5,59.8333 230.5,41.5C 233.833,41.5 237.167,41.5 240.5,41.5 Z M 347.5,75.5 C 340.913,77.4612 333.913,78.1279 326.5,77.5C 330.097,70.3372 335.764,68.1705 343.5,71C 345.07,72.3968 346.404,73.8968 347.5,75.5 Z M 119.5,92.5 C 118.11,93.8993 117.11,95.5659 116.5,97.5C 115.833,97.5 115.5,97.8333 115.5,98.5C 108.942,101.409 102.609,101.075 96.5,97.5C 96.573,95.9731 95.9063,94.9731 94.5,94.5C 93.6561,90.9009 93.3227,87.2343 93.5,83.5C 93.5,83.1667 93.5,82.8333 93.5,82.5C 95.2632,79.9804 97.2632,77.6471 99.5,75.5C 114.144,71.8189 120.811,77.4856 119.5,92.5 Z M 177.5,74.5 C 178.391,75.1098 179.391,75.4431 180.5,75.5C 181.167,76.8333 182.167,77.8333 183.5,78.5C 183.932,79.7095 184.599,80.7095 185.5,81.5C 185.557,82.609 185.89,83.609 186.5,84.5C 186.838,90.4943 184.838,95.4943 180.5,99.5C 175.833,100.833 171.167,100.833 166.5,99.5C 164.858,98.197 163.191,96.8637 161.5,95.5C 157.039,80.9666 162.372,73.9666 177.5,74.5 Z"/></g>
<g><path style="opacity:1" fill="#7bcf9d" d="M 247.5,21.5 C 250.067,21.7215 252.401,22.3882 254.5,23.5C 251.813,23.6641 249.146,23.4974 246.5,23C 247.056,22.6174 247.389,22.1174 247.5,21.5 Z"/></g>
<g><path style="opacity:1" fill="#22bf68" d="M 288.5,21.5 C 292.182,21.3347 295.848,21.5014 299.5,22C 300.126,22.7504 300.626,23.5838 301,24.5C 301.667,23.1667 302.333,23.1667 303,24.5C 303.651,26.235 303.485,27.9017 302.5,29.5C 303.896,30.8524 304.563,32.5191 304.5,34.5C 303.781,36.9974 302.781,39.3307 301.5,41.5C 300.167,41.5 298.833,41.5 297.5,41.5C 297.5,42.5 297.5,43.5 297.5,44.5C 296.551,45.1524 295.385,45.4857 294,45.5C 291.779,45.6068 289.946,44.9402 288.5,43.5C 288.027,42.0937 287.027,41.427 285.5,41.5C 280.816,36.3321 280.316,30.6654 284,24.5C 285.129,22.8588 286.629,21.8588 288.5,21.5 Z"/></g>
<g><path style="opacity:1" fill="#7dd19d" d="M 75.5,39.5 C 75.1667,39.5 74.8333,39.5 74.5,39.5C 74.5,33.5 74.5,27.5 74.5,21.5C 56.4923,21.5002 38.4923,21.8336 20.5,22.5C 20.5,51.1667 20.5,79.8333 20.5,108.5C 20.5,111.167 20.5,113.833 20.5,116.5C 27.1667,116.5 33.8333,116.5 40.5,116.5C 40.1713,103.656 40.5046,90.989 41.5,78.5C 41.5,91.5 41.5,104.5 41.5,117.5C 34.0985,118.827 26.5985,118.827 19,117.5C 18.3333,85.1667 18.3333,52.8333 19,20.5C 37.7599,19.3412 56.5932,19.1745 75.5,20C 76.8261,26.5987 76.8261,33.0987 75.5,39.5 Z"/></g>
<g><path style="opacity:0.516" fill="#99d1b4" d="M 208.5,20.5 C 208.5,38.1667 208.5,55.8333 208.5,73.5C 208.646,78.1366 207.979,78.4699 206.5,74.5C 207.167,56.5 207.833,38.5 208.5,20.5 Z"/></g>
<g><path style="opacity:1" fill="#65c88d" d="M 247.5,21.5 C 234.833,21.5 222.167,21.5 209.5,21.5C 209.83,39.008 209.497,56.3414 208.5,73.5C 208.5,55.8333 208.5,38.1667 208.5,20.5C 221.641,18.9943 234.641,19.3276 247.5,21.5 Z"/></g>
<g><path style="opacity:1" fill="#66c78d" d="M 297.5,44.5 C 297.5,43.5 297.5,42.5 297.5,41.5C 298.833,41.5 300.167,41.5 301.5,41.5C 302.781,39.3307 303.781,36.9974 304.5,34.5C 304.563,32.5191 303.896,30.8524 302.5,29.5C 303.485,27.9017 303.651,26.235 303,24.5C 302.333,23.1667 301.667,23.1667 301,24.5C 300.626,23.5838 300.126,22.7504 299.5,22C 295.848,21.5014 292.182,21.3347 288.5,21.5C 295.724,17.8131 301.557,19.4797 306,26.5C 309.189,35.4589 306.356,41.4589 297.5,44.5 Z"/></g>
<g><path style="opacity:1" fill="#45c27a" d="M 260.5,26.5 C 264.732,28.4002 268.399,31.0669 271.5,34.5C 271.5,35.1667 271.5,35.8333 271.5,36.5C 266.333,34.7605 262.667,31.4272 260.5,26.5 Z"/></g>
<g><path style="opacity:0.702" fill="#afe0c8" d="M 271.5,34.5 C 273.262,35.2623 274.262,36.5956 274.5,38.5C 273.5,37.8333 272.5,37.1667 271.5,36.5C 271.5,35.8333 271.5,35.1667 271.5,34.5 Z"/></g>
<g><path style="opacity:0.51" fill="#a8dcc3" d="M 285.5,41.5 C 287.027,41.427 288.027,42.0937 288.5,43.5C 286.973,43.573 285.973,42.9063 285.5,41.5 Z"/></g>
<g><path style="opacity:0.345" fill="#bae2cc" d="M 246.5,43.5 C 248.027,43.427 249.027,44.0937 249.5,45.5C 247.973,45.573 246.973,44.9063 246.5,43.5 Z"/></g>
<g><path style="opacity:0.875" fill="#a6ddbf" d="M 249.5,45.5 C 251.833,45.8333 253.167,47.1667 253.5,49.5C 251.833,48.5 250.5,47.1667 249.5,45.5 Z"/></g>
<g><path style="opacity:1" fill="#7acb9d" d="M 277.5,42.5 C 279.588,44.3356 280.921,46.6689 281.5,49.5C 278.907,47.9921 277.574,45.6587 277.5,42.5 Z"/></g>
<g><path style="opacity:1" fill="#7ace9c" d="M 253.5,49.5 C 256.075,50.1771 258.075,51.6771 259.5,54C 258.748,54.6708 258.414,55.5041 258.5,56.5C 256.6,54.3805 254.934,52.0472 253.5,49.5 Z"/></g>
<g><path style="opacity:1" fill="#87cfa7" d="M 281.5,49.5 C 282.924,51.5145 283.59,53.8478 283.5,56.5C 282.076,54.4855 281.41,52.1522 281.5,49.5 Z"/></g>
<g><path style="opacity:0.976" fill="#7bcf9e" d="M 354.5,59.5 C 346.994,57.4756 339.327,56.4756 331.5,56.5C 331.5,56.1667 331.5,55.8333 331.5,55.5C 339.699,54.0075 347.366,55.3408 354.5,59.5 Z"/></g>
<g><path style="opacity:1" fill="#90d6af" d="M 331.5,55.5 C 331.5,55.8333 331.5,56.1667 331.5,56.5C 329.194,56.9926 326.861,57.3259 324.5,57.5C 326.515,56.0762 328.848,55.4095 331.5,55.5 Z"/></g>
<g><path style="opacity:0.269" fill="#c0e3d2" d="M 74.5,39.5 C 74.8333,39.5 75.1667,39.5 75.5,39.5C 64.6794,40.4946 53.6794,40.8279 42.5,40.5C 42.5,46.5 42.5,52.5 42.5,58.5C 52.8333,58.5 63.1667,58.5 73.5,58.5C 73.1818,63.0323 73.5151,67.3656 74.5,71.5C 73.3047,75.2861 72.638,75.2861 72.5,71.5C 72.5,67.5 72.5,63.5 72.5,59.5C 62.1667,59.5 51.8333,59.5 41.5,59.5C 41.5,52.8333 41.5,46.1667 41.5,39.5C 52.5,39.5 63.5,39.5 74.5,39.5 Z"/></g>
<g><path style="opacity:1" fill="#89d2a6" d="M 184.5,56.5 C 187.241,56.7073 189.574,57.7073 191.5,59.5C 188.562,59.7267 186.229,58.7267 184.5,56.5 Z"/></g>
<g><path style="opacity:0.704" fill="#86d1aa" d="M 240.5,41.5 C 237.167,41.5 233.833,41.5 230.5,41.5C 230.5,59.8333 230.5,78.1667 230.5,96.5C 233.5,96.5 236.5,96.5 239.5,96.5C 236.375,97.4794 233.042,97.8128 229.5,97.5C 229.5,78.5 229.5,59.5 229.5,40.5C 233.371,40.185 237.038,40.5184 240.5,41.5 Z"/></g>
<g><path style="opacity:0.863" fill="#86d0a7" d="M 92.5,57.5 C 90.9674,59.2451 88.9674,60.2451 86.5,60.5C 88.0326,58.7549 90.0326,57.7549 92.5,57.5 Z"/></g>
<g><path style="opacity:1" fill="#9ad7b2" d="M 127.5,60.5 C 129.23,61.0256 130.564,62.0256 131.5,63.5C 129.368,63.4456 128.035,62.4456 127.5,60.5 Z"/></g>
<g><path style="opacity:0.006" fill="#f7fcf9" d="M 304.5,62.5 C 305.167,66.1667 305.833,69.8333 306.5,73.5C 306.291,74.9217 305.791,76.255 305,77.5C 304.501,72.5111 304.334,67.5111 304.5,62.5 Z"/></g>
<g><path style="opacity:1" fill="#73cc96" d="M 354.5,59.5 C 358.767,60.7684 361.767,63.4351 363.5,67.5C 361.451,65.5823 359.117,64.0823 356.5,63C 355.695,61.8873 355.028,60.7206 354.5,59.5 Z"/></g>
<g><path style="opacity:1" fill="#4ec47f" d="M 191.5,59.5 C 195.542,60.8514 198.875,63.1848 201.5,66.5C 201.5,67.1667 201.5,67.8333 201.5,68.5C 199.497,66.0181 196.831,65.0181 193.5,65.5C 193.296,63.3146 192.63,61.3146 191.5,59.5 Z"/></g>
<g><path style="opacity:1" fill="#61c58c" d="M 317.5,61.5 C 315.699,65.7003 312.699,68.7003 308.5,70.5C 310.5,66.5 313.5,63.5 317.5,61.5 Z"/></g>
<g><path style="opacity:1" fill="#41be7a" d="M 86.5,60.5 C 84.4901,65.1711 81.1568,68.5044 76.5,70.5C 76.5,69.8333 76.5,69.1667 76.5,68.5C 78.9626,64.6998 82.296,62.0332 86.5,60.5 Z"/></g>
<g><path style="opacity:0.741" fill="#9dd8ba" d="M 148.5,63.5 C 147.167,65.5 145.5,67.1667 143.5,68.5C 144.167,65.8333 145.833,64.1667 148.5,63.5 Z"/></g>
<g><path style="opacity:0.741" fill="#b1e1c9" d="M 201.5,66.5 C 203.262,67.2623 204.262,68.5956 204.5,70.5C 203.5,69.8333 202.5,69.1667 201.5,68.5C 201.5,67.8333 201.5,67.1667 201.5,66.5 Z"/></g>
<g><path style="opacity:0.408" fill="#b1e1cb" d="M 76.5,68.5 C 76.5,69.1667 76.5,69.8333 76.5,70.5C 75.8333,70.8333 75.1667,71.1667 74.5,71.5C 74.427,69.9731 75.0937,68.9731 76.5,68.5 Z"/></g>
<g><path style="opacity:1" fill="#65c991" d="M 363.5,67.5 C 365.25,68.6594 366.25,70.326 366.5,72.5C 364.241,71.656 363.241,69.9893 363.5,67.5 Z"/></g>
<g><path style="opacity:1" fill="#39c073" d="M 161.5,56.5 C 160.047,57.8249 160.381,58.6582 162.5,59C 159.332,59.1085 156.665,60.2752 154.5,62.5C 155.833,63.5 155.833,64.5 154.5,65.5C 151.855,66.1919 149.355,67.1919 147,68.5C 145.909,73.6329 142.409,75.6329 136.5,74.5C 136.552,72.0971 136.219,69.7638 135.5,67.5C 137.451,68.7158 138.951,70.3825 140,72.5C 140.66,70.6763 141.827,69.343 143.5,68.5C 145.5,67.1667 147.167,65.5 148.5,63.5C 152.071,59.8793 156.404,57.546 161.5,56.5 Z"/></g>
<g><path style="opacity:0.298" fill="#b9e2cf" d="M 308.5,70.5 C 308.573,72.0269 307.906,73.0269 306.5,73.5C 306.427,71.9731 307.094,70.9731 308.5,70.5 Z"/></g>
<g><path style="opacity:0.925" fill="#9ed8b8" d="M 180.5,75.5 C 182.5,75.5 183.5,76.5 183.5,78.5C 182.167,77.8333 181.167,76.8333 180.5,75.5 Z"/></g>
<g><path style="opacity:0.012" fill="#f9fcfa" d="M 347.5,75.5 C 348.404,76.209 348.737,77.209 348.5,78.5C 340.981,78.825 333.648,78.4916 326.5,77.5C 333.913,78.1279 340.913,77.4612 347.5,75.5 Z"/></g>
<g><path style="opacity:1" fill="#7cce9d" d="M 99.5,75.5 C 97.2632,77.6471 95.2632,79.9804 93.5,82.5C 93.027,77.9766 95.027,75.6432 99.5,75.5 Z"/></g>
<g><path style="opacity:0.996" fill="#9ed9b7" d="M 183.5,78.5 C 185.048,78.8212 185.715,79.8212 185.5,81.5C 184.599,80.7095 183.932,79.7095 183.5,78.5 Z"/></g>
<g><path style="opacity:1" fill="#67c88d" d="M 177.5,74.5 C 162.372,73.9666 157.039,80.9666 161.5,95.5C 158.856,94.8561 157.189,93.1894 156.5,90.5C 157.122,85.7204 158.122,81.0538 159.5,76.5C 160.5,76.5 161.5,76.5 162.5,76.5C 162.222,74.6536 162.889,73.3202 164.5,72.5C 168.813,72.7498 173.146,73.4164 177.5,74.5 Z"/></g>
<g><path style="opacity:0.016" fill="#f3f9f6" d="M 41.5,78.5 C 51.8893,77.859 61.8893,78.5257 71.5,80.5C 71.1667,80.5 70.8333,80.5 70.5,80.5C 61.3483,79.5064 52.015,79.1731 42.5,79.5C 42.8287,92.3443 42.4954,105.011 41.5,117.5C 41.5,104.5 41.5,91.5 41.5,78.5 Z"/></g>
<g><path style="opacity:0.831" fill="#66c796" d="M 368.5,78.5 C 369.645,82.3112 369.812,86.3112 369,90.5C 367.172,91.7525 365.339,91.7525 363.5,90.5C 350.833,90.5 338.167,90.5 325.5,90.5C 339.657,89.5041 353.99,89.1707 368.5,89.5C 368.5,85.8333 368.5,82.1667 368.5,78.5 Z"/></g>
<g><path style="opacity:0.01" fill="#fbfdfc" d="M 325.5,90.5 C 338.167,90.5 350.833,90.5 363.5,90.5C 351.34,91.3308 339.007,91.8308 326.5,92C 327.598,92.7697 327.598,93.603 326.5,94.5C 325.566,93.4324 325.232,92.099 325.5,90.5 Z"/></g>
<g><path style="opacity:0.812" fill="#90d7b0" d="M 254.5,87.5 C 253.5,90.5 251.5,92.5 248.5,93.5C 250.167,91.1667 252.167,89.1667 254.5,87.5 Z"/></g>
<g><path style="opacity:1" fill="#81cea0" d="M 70.5,94.5 C 73.3005,96.6864 74.6338,99.6864 74.5,103.5C 72.4082,100.912 71.0749,97.9116 70.5,94.5 Z"/></g>
<g><path style="opacity:0.694" fill="#ace0c5" d="M 94.5,94.5 C 95.9063,94.9731 96.573,95.9731 96.5,97.5C 95.0937,97.0269 94.427,96.0269 94.5,94.5 Z"/></g>
<g><path style="opacity:1" fill="#7ed0a0" d="M 119.5,92.5 C 119.759,94.9893 118.759,96.656 116.5,97.5C 117.11,95.5659 118.11,93.8993 119.5,92.5 Z"/></g>
<g><path style="opacity:1" fill="#45c179" d="M 70.5,80.5 C 70.8333,80.5 71.1667,80.5 71.5,80.5C 71.1774,84.226 71.5108,87.8927 72.5,91.5C 73.086,91.7093 73.586,92.0426 74,92.5C 74.6667,95.8333 75.3333,99.1667 76,102.5C 77.3561,103.38 78.8561,103.714 80.5,103.5C 80.5168,106.884 81.5168,109.884 83.5,112.5C 83.1667,112.5 82.8333,112.5 82.5,112.5C 79.0969,110.1 76.4302,107.1 74.5,103.5C 74.6338,99.6864 73.3005,96.6864 70.5,94.5C 69.2958,89.8439 69.2958,85.1772 70.5,80.5 Z"/></g>
<g><path style="opacity:1" fill="#57c484" d="M 186.5,84.5 C 187.647,88.6463 187.814,92.9796 187,97.5C 184.913,98.3972 182.746,99.0639 180.5,99.5C 184.838,95.4943 186.838,90.4943 186.5,84.5 Z"/></g>
<g><path style="opacity:1" fill="#82cea1" d="M 356.5,97.5 C 354.833,98.8333 353.167,98.8333 351.5,97.5C 353.048,95.0776 354.714,95.0776 356.5,97.5 Z"/></g>
<g><path style="opacity:1" fill="#7cce9c" d="M 161.5,95.5 C 163.191,96.8637 164.858,98.197 166.5,99.5C 163.454,99.8174 161.787,98.4841 161.5,95.5 Z"/></g>
<g><path style="opacity:0.004" fill="#d9f0e4" d="M 328.5,98.5 C 330.027,98.427 331.027,99.0937 331.5,100.5C 329.973,100.573 328.973,99.9063 328.5,98.5 Z"/></g>
<g><path style="opacity:1" fill="#58c583" d="M 93.5,83.5 C 93.3227,87.2343 93.6561,90.9009 94.5,94.5C 94.427,96.0269 95.0937,97.0269 96.5,97.5C 102.609,101.075 108.942,101.409 115.5,98.5C 115.586,99.4959 115.252,100.329 114.5,101C 106.652,103.231 98.9858,102.898 91.5,100C 92.2931,98.9148 92.9598,97.7481 93.5,96.5C 90.9782,91.9973 90.9782,87.664 93.5,83.5 Z"/></g>
<g><path style="opacity:0.008" fill="#f8fcfa" d="M 305.5,99.5 C 306.338,99.8417 306.672,100.508 306.5,101.5C 305.833,103.167 305.167,104.833 304.5,106.5C 304.5,104.5 304.5,102.5 304.5,100.5C 305.167,100.5 305.5,100.167 305.5,99.5 Z"/></g>
<g><path style="opacity:1" fill="#73ca99" d="M 351.5,97.5 C 350.522,100.325 348.522,101.658 345.5,101.5C 347.223,99.7819 349.223,98.4486 351.5,97.5 Z"/></g>
<g><path style="opacity:1" fill="#85d0a3" d="M 358.5,98.5 C 360.819,98.9925 362.819,99.9925 364.5,101.5C 361.68,101.913 359.68,100.913 358.5,98.5 Z"/></g>
<g><path style="opacity:0.524" fill="#97d0b3" d="M 208.5,117.5 C 208.167,117.5 207.833,117.5 207.5,117.5C 207.822,111.642 207.489,105.975 206.5,100.5C 206.709,99.0783 207.209,97.745 208,96.5C 208.5,103.492 208.666,110.492 208.5,117.5 Z"/></g>
<g><path style="opacity:1" fill="#7dcd9b" d="M 272.5,102.5 C 271.089,104.914 269.089,106.581 266.5,107.5C 267.598,106.603 267.598,105.77 266.5,105C 269.544,104.641 269.878,103.974 267.5,103C 269.134,102.506 270.801,102.34 272.5,102.5 Z"/></g>
<g><path style="opacity:1" fill="#6dca92" d="M 140.5,102.5 C 139.061,104.36 137.395,106.027 135.5,107.5C 136.167,104.833 136.833,102.167 137.5,99.5C 138.5,99.5 139.5,99.5 140.5,99.5C 140.5,100.5 140.5,101.5 140.5,102.5 Z"/></g>
<g><path style="opacity:1" fill="#6cc992" d="M 206.5,101.5 C 204.867,106.122 201.867,109.455 197.5,111.5C 197.586,110.504 197.252,109.671 196.5,109C 197.793,108.51 199.127,108.343 200.5,108.5C 200.5,107.167 200.5,105.833 200.5,104.5C 201.5,104.5 202.5,104.5 203.5,104.5C 203.5,103.5 203.5,102.5 203.5,101.5C 204.5,101.5 205.5,101.5 206.5,101.5 Z"/></g>
<g><path style="opacity:0.004" fill="#d4ecdf" d="M 308.5,104.5 C 309.906,104.973 310.573,105.973 310.5,107.5C 309.094,107.027 308.427,106.027 308.5,104.5 Z"/></g>
<g><path style="opacity:1" fill="#6bc791" d="M 310.5,107.5 C 313.179,107.525 314.512,108.858 314.5,111.5C 312.833,110.5 311.5,109.167 310.5,107.5 Z"/></g>
<g><path style="opacity:0.722" fill="#a7dcc0" d="M 146.5,110.5 C 148.027,110.427 149.027,111.094 149.5,112.5C 147.973,112.573 146.973,111.906 146.5,110.5 Z"/></g>
<g><path style="opacity:1" fill="#94d4ad" d="M 262.5,110.5 C 261.101,111.89 259.434,112.89 257.5,113.5C 258.344,111.241 260.011,110.241 262.5,110.5 Z"/></g>
<g><path style="opacity:0.439" fill="#b3dec9" d="M 314.5,111.5 C 316.027,111.427 317.027,112.094 317.5,113.5C 315.973,113.573 314.973,112.906 314.5,111.5 Z"/></g>
<g><path style="opacity:0.239" fill="#cae7d8" d="M 82.5,112.5 C 82.8333,112.5 83.1667,112.5 83.5,112.5C 84.5,112.833 85.1667,113.5 85.5,114.5C 83.9731,114.573 82.9731,113.906 82.5,112.5 Z"/></g>
<g><path style="opacity:0.549" fill="#96d6b3" d="M 149.5,112.5 C 151.027,112.427 152.027,113.094 152.5,114.5C 150.973,114.573 149.973,113.906 149.5,112.5 Z"/></g>
<g><path style="opacity:1" fill="#81cfa0" d="M 256.5,113.5 C 255.22,114.931 253.553,115.598 251.5,115.5C 252.552,113.744 254.219,113.077 256.5,113.5 Z"/></g>
<g><path style="opacity:0.404" fill="#aedcc4" d="M 317.5,113.5 C 319.027,113.427 320.027,114.094 320.5,115.5C 318.973,115.573 317.973,114.906 317.5,113.5 Z"/></g>
<g><path style="opacity:1" fill="#91d3ae" d="M 87.5,115.5 C 90.855,115.69 93.855,116.69 96.5,118.5C 93.0836,118.472 90.0836,117.472 87.5,115.5 Z"/></g>
<g><path style="opacity:0.153" fill="#cee9db" d="M 152.5,114.5 C 154.027,114.427 155.027,115.094 155.5,116.5C 153.973,116.573 152.973,115.906 152.5,114.5 Z"/></g>
<g><path style="opacity:1" fill="#6acb91" d="M 364.5,101.5 C 366.09,101.628 367.423,102.295 368.5,103.5C 359.887,116.474 347.887,121.807 332.5,119.5C 332.5,119.167 332.5,118.833 332.5,118.5C 335.518,118.665 338.518,118.498 341.5,118C 347.045,115.984 352.712,114.484 358.5,113.5C 358.36,111.876 359.027,110.71 360.5,110C 360.167,109.667 359.833,109.333 359.5,109C 361.965,107.911 363.965,106.244 365.5,104C 365.257,103.098 364.923,102.265 364.5,101.5 Z"/></g>
<g><path style="opacity:1" fill="#4fc280" d="M 305.5,99.5 C 304.833,99.5 304.5,99.8333 304.5,100.5C 304.5,102.5 304.5,104.5 304.5,106.5C 304.642,110.545 304.642,114.379 304.5,118C 297.5,118.667 290.5,118.667 283.5,118C 283.411,112.378 283.411,106.544 283.5,100.5C 283.666,94.8236 283.499,89.1569 283,83.5C 282.392,85.1545 281.892,86.8211 281.5,88.5C 279.494,93.8546 276.494,98.5213 272.5,102.5C 272.5,100.5 272.5,98.5 272.5,96.5C 273.675,96.719 274.675,96.3857 275.5,95.5C 274.109,93.0642 274.609,92.3975 277,93.5C 277.256,90.443 277.756,87.443 278.5,84.5C 280.386,83.5937 282.22,82.5937 284,81.5C 285.301,93.1275 285.801,104.794 285.5,116.5C 291.5,116.5 297.5,116.5 303.5,116.5C 303.334,110.491 303.501,104.491 304,98.5C 305.087,96.0684 305.587,96.4017 305.5,99.5 Z"/></g>
<g><path style="opacity:0.007" fill="#f6fcf9" d="M 283.5,100.5 C 282.833,96.5 282.167,92.5 281.5,88.5C 281.892,86.8211 282.392,85.1545 283,83.5C 283.499,89.1569 283.666,94.8236 283.5,100.5 Z"/></g>
<g><path style="opacity:0.021" fill="#eef7f2" d="M 248.5,116.5 C 240.899,118.055 233.066,118.721 225,118.5C 218.99,118.499 213.157,118.166 207.5,117.5C 207.833,117.5 208.167,117.5 208.5,117.5C 221.853,117.691 235.187,117.358 248.5,116.5 Z"/></g>
<g><path style="opacity:0.89" fill="#9cddba" d="M 156.5,116.5 C 165.383,118.262 174.383,118.928 183.5,118.5C 174.263,121.363 165.263,120.697 156.5,116.5 Z"/></g>
<g><path style="opacity:0.475" fill="#b8e2cc" d="M 324.5,117.5 C 327.167,117.833 329.833,118.167 332.5,118.5C 332.5,118.833 332.5,119.167 332.5,119.5C 329.505,119.706 326.838,119.04 324.5,117.5 Z"/></g>
</svg>
